<svg width="19" height="15" viewBox="0 0 19 15" fill="none" xmlns="http://www.w3.org/2000/svg">
<path d="M9.43551 10.1107C9.49188 10.1968 9.46818 10.327 9.38835 10.3697C9.31536 10.4087 6.98952 10.4087 6.88677 10.3697C6.82269 10.3453 6.80982 10.3212 6.80982 10.2257C6.80982 10.1625 6.82602 10.0947 6.84582 10.0749C6.87267 10.0481 7.20033 10.0389 8.13513 10.0389H9.38844L9.43551 10.1107Z" fill="#808080" stroke="#808080" stroke-width="0.2" stroke-linejoin="round"/>
<path d="M8.87382 11.2749C8.92032 11.3214 8.92032 11.4864 8.87382 11.5329C8.8473 11.5594 8.58297 11.5689 7.87095 11.5689C6.82218 11.5689 6.80982 11.567 6.80982 11.4039C6.80982 11.2408 6.82218 11.2389 7.87095 11.2389C8.58297 11.2389 8.8473 11.2484 8.87382 11.2749Z" fill="#808080" stroke="#808080" stroke-width="0.2" stroke-linejoin="round"/>
<path d="M10.4515 8.87773C10.5319 8.93659 10.5062 9.11161 10.4098 9.16093C10.3151 9.20938 6.92112 9.20263 6.87342 9.15391C6.80634 9.08536 6.80337 8.96536 6.86721 8.90152C6.92925 8.83948 6.94581 8.83891 8.66409 8.83891C10.0357 8.83891 10.4095 8.84704 10.4515 8.87773Z" fill="#808080" stroke="#808080" stroke-width="0.2" stroke-linejoin="round"/>
<path d="M11.6294 7.71511C11.6815 7.78639 11.6813 7.92202 11.629 7.96543C11.5993 7.99006 10.9453 7.9972 9.22242 7.99159L6.85659 7.98391L6.82107 7.91266C6.79611 7.86256 6.7944 7.81606 6.81531 7.75603L6.84507 7.67065L7.22496 7.66135C7.43388 7.65622 8.50125 7.65379 9.59691 7.65592C11.4951 7.65964 11.5909 7.66243 11.6294 7.71511Z" fill="#808080" stroke="#808080" stroke-width="0.2" stroke-linejoin="round"/>
<path fill-rule="evenodd" clip-rule="evenodd" d="M11.8724 0.076746C12.7053 0.257676 13.3483 0.573816 13.978 1.11211C14.2445 1.3399 14.62 1.77226 14.8543 2.12104C15.2891 2.76835 15.5541 3.58891 15.5975 4.42243C15.6098 4.65811 15.6322 4.86292 15.6473 4.87756C15.6625 4.8922 15.7611 4.93303 15.8665 4.96828C16.5494 5.19661 17.3288 5.79754 17.7962 6.4561C18.5315 7.49206 18.7179 8.88196 18.2806 10.0676C18.0289 10.7498 17.7808 11.1335 17.2517 11.6589C16.8167 12.0908 16.2169 12.4505 15.6748 12.6046C15.1207 12.7621 14.996 12.7743 13.7848 12.79L12.6448 12.8048L12.0892 13.3516C11.6239 13.8095 11.4996 13.9151 11.3249 14.0012L11.1162 14.1039L8.85048 14.1125C7.35429 14.1182 6.51483 14.1103 6.37875 14.0892C5.84484 14.0064 5.45223 13.6214 5.36784 13.0979C5.35065 12.9912 5.33115 12.8769 5.32455 12.8439C5.31291 12.7859 5.29266 12.7842 4.71867 12.7941C3.66201 12.8123 3.04356 12.7076 2.36346 12.3953C1.47762 11.9886 0.823982 11.3523 0.389732 10.4739C0.120092 9.92851 0.000332227 9.39046 2.22712e-06 8.72275C-0.000507773 7.74094 0.313712 6.90436 0.973322 6.13129C1.35099 5.68864 2.02035 5.21836 2.54232 5.02891L2.72982 4.96087V4.64041C2.72982 4.46413 2.74401 4.23982 2.76135 4.14193C2.92791 3.20149 3.61119 2.35432 4.49397 1.99363C4.88646 1.83325 5.07777 1.79164 5.51982 1.77046C5.83602 1.75531 5.9442 1.76272 6.20982 1.81762C6.38307 1.85344 6.62937 1.92985 6.75714 1.98742C6.90195 2.05267 7.00527 2.08303 7.03149 2.068C7.05462 2.05474 7.17159 1.91566 7.29138 1.75891C8.04096 0.778266 9.02394 0.221916 10.3406 0.0330661C10.7464 -0.0251339 11.5028 -0.00356405 11.8724 0.076746ZM8.00625 1.67374C8.66778 1.0219 9.52281 0.618306 10.5148 0.489576C10.7069 0.464646 11.2183 0.470376 11.4606 0.500166C12.3203 0.605826 13.0936 0.960096 13.7616 1.55434C14.3809 2.1052 14.7376 2.69716 15.0172 3.63823C15.0865 3.87133 15.0989 3.98119 15.1187 4.53391C15.1311 4.88041 15.151 5.1865 15.1629 5.21407C15.1874 5.27116 15.3479 5.341 15.5248 5.3716C15.738 5.40844 16.4039 5.75986 16.6948 5.98909C17.5455 6.65917 18.0314 7.65325 18.0292 8.71891C18.0285 9.03808 17.9525 9.53464 17.8631 9.8035C17.6549 10.4301 17.2506 11.0257 16.759 11.4302C16.299 11.8087 15.7794 12.0836 15.2829 12.211C14.9999 12.2836 14.4812 12.3184 13.6798 12.3185L12.9448 12.3186L13.0253 12.2513C13.0806 12.2051 13.1257 12.1158 13.1689 11.9673C13.2279 11.7642 13.2316 11.684 13.2287 10.6799L13.2255 9.60901L13.6252 9.20641C13.845 8.98498 14.1304 8.70034 14.2593 8.57386C14.57 8.26921 14.8178 7.96447 14.8671 7.82614C14.969 7.54069 14.8865 7.31833 14.5653 7.01329C14.2963 6.75775 14.1688 6.69346 13.9348 6.69544C13.721 6.69721 13.6274 6.74155 13.4018 6.9478C13.3108 7.0309 13.2306 7.09891 13.2234 7.09891C13.2163 7.09891 13.2114 6.75802 13.2126 6.34141C13.2145 5.70982 13.2062 5.55262 13.1627 5.39563C13.0648 5.04154 12.8091 4.73569 12.4834 4.58296L12.3148 4.50391H9.23982H6.16482L5.99982 4.59391C5.68152 4.76752 5.44815 5.06953 5.35065 5.43391C5.31831 5.55487 5.31045 6.23227 5.31018 8.93233L5.30982 12.2807L5.17062 12.2998C4.95621 12.3292 4.22217 12.3224 3.8553 12.2876C3.37887 12.2424 3.04623 12.1613 2.66265 11.9968C1.85487 11.6504 1.24479 11.0799 0.853622 10.3052C0.622112 9.84664 0.523262 9.46399 0.490322 8.89891C0.449042 8.19106 0.696992 7.31206 1.09536 6.75391C1.27869 6.49708 1.80648 5.99116 2.0649 5.82454C2.35098 5.6401 2.79993 5.43028 2.9655 5.40361C3.19323 5.36692 3.20973 5.33005 3.21042 4.85641C3.21114 4.35085 3.24633 4.09297 3.35007 3.8332C3.74292 2.84929 4.60929 2.26195 5.66982 2.26048C6.09858 2.25988 6.3762 2.33017 6.77664 2.54074C7.18995 2.75806 7.25007 2.74612 7.43451 2.41006C7.58061 2.14384 7.74822 1.92799 8.00625 1.67374ZM5.86647 5.42065C5.96613 5.19853 6.10305 5.06593 6.30531 4.99558C6.45672 4.94293 6.61011 4.94047 9.32982 4.94701C9.5111 4.94744 9.68136 4.94781 9.84129 4.94816C12.0567 4.95297 12.2921 4.95348 12.4273 5.07015C12.4433 5.08402 12.458 5.09953 12.4744 5.11689C12.4843 5.12741 12.4949 5.13861 12.5068 5.15053C12.6843 5.32804 12.7293 5.47432 12.7432 5.91952L12.7556 6.3151L12.6552 6.33301C12.6 6.34288 11.0361 6.34711 9.17982 6.34243L5.80482 6.33391L5.79639 5.96476C5.78853 5.62141 5.79345 5.58334 5.86647 5.42065ZM5.8212 13.1057C5.80071 13.0319 5.79009 11.9132 5.79 9.8179L5.78982 6.64192L5.85732 6.66001C5.89446 6.66994 7.46046 6.67828 9.33732 6.67849L12.7498 6.67891V7.16254V7.64617L11.4971 8.91004C10.4901 9.92605 10.2258 10.2092 10.1495 10.3539C10.0309 10.5786 9.70731 11.695 9.73212 11.7939C9.78504 12.0047 9.89787 12.0011 10.6048 11.7657C10.8688 11.6778 11.1452 11.5894 11.2189 11.5692C11.3653 11.5292 11.5279 11.377 12.347 10.5134L12.7648 10.0729L12.7576 10.8884C12.7536 11.3369 12.7369 11.752 12.7206 11.8107C12.7042 11.8694 12.6559 11.9504 12.6131 11.9905C12.5403 12.059 12.5077 12.0647 12.0951 12.0815C11.6104 12.1014 11.5124 12.1283 11.3251 12.2927C11.1444 12.4513 11.0984 12.5908 11.0811 13.0325C11.062 13.5173 11.0571 13.5384 10.9495 13.5941C10.8707 13.6348 10.5889 13.6394 8.60157 13.6321L6.34317 13.6239L6.19428 13.5473C6.02667 13.461 5.86758 13.2727 5.8212 13.1057ZM13.6423 7.3081C13.7568 7.19602 13.883 7.09816 13.9227 7.09069C13.9624 7.08319 14.003 7.07524 14.0129 7.07299C14.0569 7.06303 14.2422 7.21732 14.3605 7.36252C14.5422 7.58536 14.5368 7.65988 14.3204 7.91734C14.2056 8.05399 14.1297 8.11891 14.0848 8.11891C14.0164 8.11891 13.5275 7.68673 13.4661 7.57198C13.4381 7.51963 13.4607 7.48576 13.6423 7.3081ZM11.7133 9.28891C12.3601 8.63716 12.9547 8.03302 13.0345 7.94641C13.1144 7.8598 13.1876 7.78954 13.1973 7.79029C13.2069 7.79107 13.2553 7.84324 13.3048 7.90624C13.3543 7.96924 13.4788 8.0935 13.5815 8.18236C13.6841 8.27122 13.7685 8.36887 13.769 8.39938C13.7695 8.4325 13.3314 8.90377 12.6815 9.56938C12.0829 10.1824 11.487 10.7949 11.3572 10.9305C11.1987 11.0961 11.0856 11.188 11.013 11.2103C10.9535 11.2285 10.8358 11.2702 10.7514 11.303L10.5979 11.3626L10.4926 11.2932C10.4347 11.2551 10.3659 11.2104 10.3398 11.1939C10.2971 11.1669 10.2996 11.139 10.3648 10.9173C10.4047 10.7817 10.4598 10.6265 10.4873 10.5723C10.5148 10.5182 11.0665 9.94066 11.7133 9.28891Z" fill="#808080" stroke="#808080" stroke-width="0.2" stroke-linejoin="round"/>
</svg>
